<?xml version="1.0" encoding="UTF-8" standalone="no"?>
<!-- Created with Inkscape (http://www.inkscape.org/) -->

<svg
   version="1.1"
   id="svg1"
   width="594.81836"
   height="192.56331"
   viewBox="0 0 594.81836 192.56331"
   xmlns="http://www.w3.org/2000/svg"
   xmlns:svg="http://www.w3.org/2000/svg">
  <defs
     id="defs1" />
  <g
     id="g1"
     transform="translate(212.85251,376.59299)">
    <path
       style="fill:#004aad;fill-opacity:1"
       d="m -212.85251,-375.86574 36.00552,128.61091 35.5625,-0.0625 35.3125,-128.0625 h -29.625 l -23.5625,101.25 -24.25,-101.3125 z"
       id="path7" />
    <path
       style="fill:#004aad;fill-opacity:1;stroke-width:0.989518"
       d="m 5.2255455,-375.55152 27.9307205,0.0866 0.0884,58.67753 42.26522,-58.68082 h 33.937504 l -45.812504,59.54427 52.250004,66.52067 -36.437504,0.30599 -46.25,-67.07145 0.375,67.37743 -28.1875005,-0.67316 z"
       id="path8" />
    <path
       style="fill:#5989c9;fill-opacity:1;stroke-width:1.01234"
       d="m -179.94429,-360.89482 7.28009,-0.37614 16.7314,75.22738 -3.19301,11.78562 z"
       id="path9" />
    <path
       style="fill:#b2c8e6;fill-opacity:1;stroke-width:1.01124"
       d="m -153.62548,-298.65185 -13.74015,-62.54492 -6.4884,0.12558 17.8113,74.85297 z"
       id="path10" />
    <path
       style="fill:#82a6d7;fill-opacity:1;stroke-width:0.944185"
       d="m -173.89025,-361.09508 -1.81233,-8.13173 -6.14615,0.35355 1.89112,8.22012 z"
       id="path11" />
    <path
       style="fill:#5989c9;fill-opacity:1;stroke-width:0.981947"
       d="m -110.31983,-360.3824 h 8.598 l -31.98454,119.8546 -30.09298,-0.35045 -1.03176,-6.83383 23.04263,-0.17522 z"
       id="path12" />
    <path
       style="fill:#7fa4d6;fill-opacity:1"
       d="m -110.33136,-360.37983 1.51562,-5.3125 8.53125,0.0937 -1.5,5.28125 z"
       id="path13" />
    <path
       style="fill:#7fa4d6;fill-opacity:1;stroke-width:1.01124"
       d="m -164.77866,-247.69233 -4.50583,-0.0312 0.92673,6.8125 h 4.72952 z"
       id="path14" />
    <path
       style="fill:#000000;fill-opacity:1;stroke-width:0.968274"
       d="m -127.11962,-254.44429 10.07628,5.46934 38.979266,-49.80418 17.76606,10.77294 44.63612,-57.84247 12.1091995,6.79526 v -37.5396 l -36.7695495,14.33631 14.4073,9.36418 -37.03472,48.56116 -18.826724,-11.60164 z"
       id="path15" />
    <path
       style="fill:#5989c9;fill-opacity:1;stroke-width:0.973002"
       d="m 20.852976,-249.22044 12.18857,-0.17597 0.0841,-66.87177 7.98561,11.3506 -0.67247,62.47231 h -19.92202 z"
       id="path16" />
    <path
       style="fill:#5989c9;fill-opacity:1;stroke-width:0.992239"
       d="m 41.062166,-327.6106 v -33.59057 h -8.22012 l 0.35356,44.6424 z"
       id="path17" />
    <path
       style="fill:#5989c9;fill-opacity:1;stroke-width:0.989518"
       d="m 109.88762,-360.37753 -40.750004,51.64991 -6.75,-7.83316 36,-44.30632 z"
       id="path18" />
    <path
       style="fill:#5989c9;fill-opacity:1;stroke-width:1.01564"
       d="m 82.076956,-249.12511 3.76689,6.41809 35.659884,-0.25672 -6.02702,-7.18826 z"
       id="path19" />
    <path
       style="fill:#b2c8e6;fill-opacity:1;stroke-width:1.02673"
       d="m 120.69341,-243.29246 6.93659,8.23536 H 92.007236 l -4.47522,-8.00532 z"
       id="path22" />
    <path
       style="fill:#b2c8e6;fill-opacity:1;stroke-width:0.990527"
       d="m 109.78296,-360.38323 9.1261,0.22913 -45.254574,56.78113 -4.61255,-5.18483 z"
       id="path23" />
    <path
       style="fill:#b2c8e6;fill-opacity:1;stroke-width:0.989518"
       d="m 41.111216,-304.71443 7.73398,11.29413 -0.57452,58.72081 -27.93072,-0.25963 0.17678,-7.44288 19.93157,-0.0866 z"
       id="path24" />
    <path
       style="fill:#b2c8e6;fill-opacity:1;stroke-width:0.989518"
       d="m 41.022826,-361.22832 h 8.44109 v 21.80934 l -8.3527,11.72686 z"
       id="path25" />
    <path
       style="fill:#7fa4d6;fill-opacity:1;stroke-width:1.00644"
       d="m 32.840516,-361.12883 0.0625,-7.21697 h 8.4375 l -0.1875,7.34359 z"
       id="path26" />
    <path
       style="fill:#7fa4d6;fill-opacity:1;stroke-width:0.989518"
       d="m 20.781896,-249.28233 -6.54073,0.0865 -0.26517,6.57742 h 6.54074 z"
       id="path27" />
    <path
       style="fill:#7fa4d6;fill-opacity:1;stroke-width:0.989518"
       d="m 109.52381,-360.49269 6.45235,-8.22177 -11.57888,-0.0866 -6.187184,7.96215 z"
       id="path28" />
    <text
       xml:space="preserve"
       style="font-size:64.5003px;fill:#000000;fill-opacity:1;stroke-width:5.37502"
       x="141.09738"
       y="-223.86284"
       id="text30"
       transform="scale(0.89923045,1.112062)"><tspan
         id="tspan30"
         x="141.09738"
         y="-223.86284"
         style="font-style:normal;font-variant:normal;font-weight:normal;font-stretch:normal;font-family:Arial;-inkscape-font-specification:Arial;stroke-width:5.37502">SERVICE</tspan></text>
    <text
       xml:space="preserve"
       style="font-style:normal;font-variant:normal;font-weight:normal;font-stretch:normal;font-size:34.7298px;font-family:Arial;-inkscape-font-specification:Arial;fill:#000000;fill-opacity:1;stroke-width:2.89415"
       x="-230.0168"
       y="-174.06683"
       id="text31"
       transform="scale(0.90706863,1.1024524)"><tspan
         id="tspan31"
         x="-230.0168"
         y="-174.06683"
         style="font-style:normal;font-variant:normal;font-weight:normal;font-stretch:condensed;font-family:Arial;-inkscape-font-specification:'Arial Condensed';stroke-width:2.89415">LEVANDO SOLUÇÕES PARA SEUS PROBLEMAS</tspan></text>
  </g>
</svg>
