<?xml version="1.0" encoding="UTF-8" standalone="no"?>
<!-- Created with Inkscape (http://www.inkscape.org/) -->

<svg
   version="1.1"
   id="svg1"
   width="340.48251"
   height="141.89351"
   viewBox="0 0 340.48251 141.89351"
   xmlns="http://www.w3.org/2000/svg"
   xmlns:svg="http://www.w3.org/2000/svg">
  <defs
     id="defs1" />
  <g
     id="g1"
     transform="translate(261.81802,187.33817)">
    <path
       style="fill:#004aad;fill-opacity:1"
       d="M -261.81802,-186.61091 -225.8125,-58 l 35.5625,-0.0625 35.3125,-128.0625 h -29.625 l -23.5625,101.25 -24.25,-101.3125 z"
       id="path7" />
    <path
       style="fill:#004aad;fill-opacity:1;stroke-width:0.989518"
       d="m -43.739967,-186.29669 27.93072,0.0866 0.0884,58.67753 42.265217,-58.68082 h 33.9375 l -45.8125,59.54427 52.25,66.520677 -36.4375,0.305983 -46.249997,-67.07145 0.375,67.377433 -28.1875,-0.673163 z"
       id="path8" />
    <path
       style="fill:#5989c9;fill-opacity:1;stroke-width:1.01234"
       d="m -228.9098,-171.63999 7.28009,-0.37614 16.7314,75.227381 -3.19301,11.785624 z"
       id="path9" />
    <path
       style="fill:#b2c8e6;fill-opacity:1;stroke-width:1.01124"
       d="m -202.59099,-109.39702 -13.74015,-62.54492 -6.4884,0.12558 17.8113,74.852972 z"
       id="path10" />
    <path
       style="fill:#82a6d7;fill-opacity:1;stroke-width:0.944185"
       d="m -222.85576,-171.84025 -1.81233,-8.13173 -6.14615,0.35355 1.89112,8.22012 z"
       id="path11" />
    <path
       style="fill:#5989c9;fill-opacity:1;stroke-width:0.981947"
       d="m -159.28534,-171.12757 h 8.598 l -31.98454,119.854601 -30.09298,-0.350449 -1.03176,-6.833824 23.04263,-0.17522 z"
       id="path12" />
    <path
       style="fill:#7fa4d6;fill-opacity:1"
       d="m -159.29687,-171.125 1.51562,-5.3125 8.53125,0.0937 -1.5,5.28125 z"
       id="path13" />
    <path
       style="fill:#7fa4d6;fill-opacity:1;stroke-width:1.01124"
       d="m -213.74417,-58.4375 -4.50583,-0.03125 0.92673,6.8125 h 4.72952 z"
       id="path14" />
    <path
       style="fill:#000000;fill-opacity:1;stroke-width:0.968274"
       d="m -176.08513,-65.189461 10.07628,5.469345 38.97926,-49.804184 17.76606,10.772947 44.636119,-57.842477 12.1092,6.79526 v -37.5396 l -36.76955,14.33631 14.4073,9.36418 -37.034719,48.56116 -18.82672,-11.60164 z"
       id="path15" />
    <path
       style="fill:#5989c9;fill-opacity:1;stroke-width:0.973002"
       d="m -28.11254,-59.965608 12.188572,-0.175971 0.08407,-66.871771 7.9856141,11.3506 -0.672476,62.472315 H -28.448773 Z"
       id="path16" />
    <path
       style="fill:#5989c9;fill-opacity:1;stroke-width:0.992239"
       d="m -7.9033469,-138.35577 v -33.59057 h -8.2201201 l 0.35356,44.6424 z"
       id="path17" />
    <path
       style="fill:#5989c9;fill-opacity:1;stroke-width:0.989518"
       d="m 60.9221,-171.1227 -40.75,51.64991 -6.75,-7.83316 36,-44.30632 z"
       id="path18" />
    <path
       style="fill:#5989c9;fill-opacity:1;stroke-width:1.01564"
       d="m 33.11144,-59.870272 3.76689,6.418089 35.65988,-0.256724 -6.02702,-7.188259 z"
       id="path19" />
    <path
       style="fill:#b2c8e6;fill-opacity:1;stroke-width:1.02673"
       d="m 71.72789,-54.037622 6.93659,8.235356 H 43.04172 l -4.47522,-8.005319 z"
       id="path22" />
    <path
       style="fill:#b2c8e6;fill-opacity:1;stroke-width:0.990527"
       d="m 60.81744,-171.1284 9.1261,0.22913 -45.25457,56.78113 -4.61255,-5.18483 z"
       id="path23" />
    <path
       style="fill:#b2c8e6;fill-opacity:1;stroke-width:0.989518"
       d="m -7.8542939,-115.4596 7.73397998,11.29413 -0.574524,58.720812 -27.93071808,-0.259635 0.176777,-7.442873 19.9315721,-0.08655 z"
       id="path24" />
    <path
       style="fill:#b2c8e6;fill-opacity:1;stroke-width:0.989518"
       d="m -7.9426819,-171.97349 h 8.44108798 v 21.80934 l -8.35269898,11.72686 z"
       id="path25" />
    <path
       style="fill:#7fa4d6;fill-opacity:1;stroke-width:1.00644"
       d="m -16.125,-171.874 0.0625,-7.21697 h 8.4375001 l -0.1875,7.34359 z"
       id="path26" />
    <path
       style="fill:#7fa4d6;fill-opacity:1;stroke-width:0.989518"
       d="m -28.183613,-60.027496 -6.540738,0.08655 -0.265165,6.577423 h 6.540738 z"
       id="path27" />
    <path
       style="fill:#7fa4d6;fill-opacity:1;stroke-width:0.989518"
       d="m 60.55829,-171.23786 6.45235,-8.22177 -11.57888,-0.0866 -6.18718,7.96215 z"
       id="path28" />
  </g>
</svg>
